<?xml version="1.0" standalone="no"?>
<!DOCTYPE svg PUBLIC "-//W3C//DTD SVG 20010904//EN"
 "http://www.w3.org/TR/2001/REC-SVG-20010904/DTD/svg10.dtd">
<svg version="1.0" xmlns="http://www.w3.org/2000/svg"
 width="111.000000pt" height="111.000000pt" viewBox="0 0 111.000000 111.000000"
 preserveAspectRatio="xMidYMid meet">
<metadata>
Created by potrace 1.14, written by Peter Selinger 2001-2017
</metadata>
<g transform="translate(0.000000,111.000000) scale(0.100000,-0.100000)"
fill="#000000" stroke="none">
<path d="M223 1019 c-13 -4 -23 -6 -23 -3 0 3 -7 -2 -16 -10 -8 -9 -22 -16
-30 -16 -8 0 -12 -5 -9 -11 4 -6 0 -9 -11 -7 -10 2 -19 -2 -19 -9 0 -6 -13
-23 -28 -37 -18 -16 -27 -33 -23 -42 3 -8 2 -13 -3 -10 -5 3 -12 -6 -16 -22
-11 -40 -14 -142 -4 -148 5 -3 9 -14 9 -25 0 -10 5 -19 10 -19 6 0 10 -6 10
-14 0 -18 65 -88 73 -80 4 4 9 -1 13 -10 3 -9 10 -14 14 -11 5 3 11 1 15 -5 4
-6 11 -8 16 -5 5 4 9 2 9 -3 0 -10 -18 -9 340 -12 275 -2 355 -10 333 -35 -5
-4 -2 -5 5 0 19 10 68 -45 81 -90 10 -39 6 -102 -9 -120 -6 -7 -8 -14 -7 -16
2 -2 -12 -20 -31 -39 -19 -19 -31 -28 -27 -20 7 12 5 12 -11 -1 -31 -27 -71
-31 -342 -31 -349 1 -339 0 -356 17 -8 9 -18 16 -21 15 -20 -1 -25 1 -20 9 3
6 -1 15 -8 22 -7 7 -11 25 -9 41 5 33 -36 30 392 29 276 -1 310 2 310 25 0 8
5 14 10 14 6 0 5 8 -2 19 -7 11 -16 17 -20 15 -4 -3 -8 -1 -8 4 0 6 -155 10
-389 10 l-388 1 1 -77 c1 -42 7 -87 13 -98 7 -12 9 -24 6 -28 -3 -3 2 -6 12
-6 10 0 15 -3 12 -7 -4 -3 2 -13 13 -20 11 -8 17 -19 14 -25 -4 -6 -2 -8 3 -5
6 4 21 -2 34 -12 22 -17 49 -18 368 -18 311 -1 349 1 387 17 23 10 46 15 50
12 4 -4 4 -2 0 5 -3 7 2 14 14 18 11 4 18 10 15 15 -3 5 8 19 25 31 16 13 30
29 30 36 0 7 4 13 9 13 6 0 8 9 6 20 -2 11 0 20 4 20 5 0 8 31 7 70 0 38 -4
70 -8 70 -5 0 -7 3 -6 8 2 9 -13 43 -24 57 -5 6 -16 19 -24 30 -9 11 -12 14
-8 6 5 -9 3 -12 -4 -7 -7 4 -12 14 -12 21 0 8 -15 19 -32 24 -18 5 -26 10 -18
11 8 1 -3 7 -25 15 -29 9 -118 13 -316 13 -153 0 -294 4 -315 8 -67 11 -133
62 -128 97 1 9 -2 17 -6 17 -5 0 -8 25 -8 55 1 30 6 55 11 55 4 0 6 4 3 9 -11
18 73 91 113 98 15 3 606 4 644 1 9 -1 17 -5 17 -10 0 -4 6 -8 14 -8 30 0 60
-90 35 -106 -6 -3 -161 -6 -345 -6 -329 -1 -335 -1 -350 -22 -13 -19 -13 -22
5 -37 18 -15 64 -16 403 -15 l383 1 1 73 c1 39 -2 72 -7 72 -5 0 -9 5 -9 11 0
5 5 7 12 3 6 -4 -1 9 -16 29 -16 20 -33 37 -40 37 -6 0 -4 5 4 10 12 8 11 10
-7 10 -13 0 -23 3 -23 8 0 4 -9 13 -21 20 -12 8 -18 9 -15 3 4 -6 -5 -4 -20 3
-20 11 -95 14 -347 14 -177 0 -332 -4 -344 -9z"/>
</g>
</svg>
